<svg version="1.1" xmlns="http://www.w3.org/2000/svg" xmlns:xlink="http://www.w3.org/1999/xlink" width="600" height="600" viewBox="0 0 600 600"><defs/><g transform="scale(1,1) scale(1,1)"><g transform="translate(300,300)"><path fill="#FFFFFF" stroke="rgb(0,0,0)" paint-order="fill stroke markers" d=" M 250 0 L 125.00000000000003 216.50635094610965 L -124.99999999999994 216.50635094610968 L -250 3.061616997868383e-14 L -125.00000000000011 -216.50635094610962 L 125.00000000000003 -216.50635094610965 L 250 0 L 250 0" stroke-opacity="1" stroke-linecap="round" stroke-miterlimit="10" stroke-width="3"/></g><g transform="translate(300,300)"><path fill="none" stroke="rgb(251,237,0)" paint-order="fill stroke markers" d=" M 50 0 L 250 0" stroke-opacity="1" stroke-linecap="round" stroke-miterlimit="10" stroke-width="3"/><g transform="rotate(119.99999999999999,0,0)"><path fill="none" stroke="rgb(251,237,0)" paint-order="fill stroke markers" d=" M 50 0 L 250 0" stroke-opacity="1" stroke-linecap="round" stroke-miterlimit="10" stroke-width="3"/><g transform="rotate(119.99999999999999,0,0)"><path fill="none" stroke="rgb(251,237,0)" paint-order="fill stroke markers" d=" M 50 0 L 250 0" stroke-opacity="1" stroke-linecap="round" stroke-miterlimit="10" stroke-width="3"/><g transform="rotate(119.99999999999999,0,0)"/></g></g></g><g transform="translate(300,300)"><path fill="none" stroke="rgb(18,153,214)" paint-order="fill stroke markers" d=" M 17.5 0 C 17.5 -64.20310216425 69.54689783575 -116.25 133.75 -116.25 C 197.95310216425 -116.25 250 -64.20310216425 250 0 C 250 64.20310216425 197.95310216425 116.25 133.75 116.25 C 69.54689783575 116.25 17.5 64.20310216425 17.5 0 Z" stroke-opacity="1" stroke-linecap="round" stroke-miterlimit="10"/><g transform="rotate(59.99999999999999,0,0)"><path fill="none" stroke="rgb(18,153,214)" paint-order="fill stroke markers" d=" M 17.5 0 C 17.5 -64.20310216425 69.54689783575 -116.25 133.75 -116.25 C 197.95310216425 -116.25 250 -64.20310216425 250 0 C 250 64.20310216425 197.95310216425 116.25 133.75 116.25 C 69.54689783575 116.25 17.5 64.20310216425 17.5 0 Z" stroke-opacity="1" stroke-linecap="round" stroke-miterlimit="10"/><g transform="rotate(59.99999999999999,0,0)"><path fill="none" stroke="rgb(18,153,214)" paint-order="fill stroke markers" d=" M 17.5 0 C 17.5 -64.20310216425 69.54689783575 -116.25 133.75 -116.25 C 197.95310216425 -116.25 250 -64.20310216425 250 0 C 250 64.20310216425 197.95310216425 116.25 133.75 116.25 C 69.54689783575 116.25 17.5 64.20310216425 17.5 0 Z" stroke-opacity="1" stroke-linecap="round" stroke-miterlimit="10"/><g transform="rotate(59.99999999999999,0,0)"><path fill="none" stroke="rgb(18,153,214)" paint-order="fill stroke markers" d=" M 17.5 0 C 17.5 -64.20310216425 69.54689783575 -116.25 133.75 -116.25 C 197.95310216425 -116.25 250 -64.20310216425 250 0 C 250 64.20310216425 197.95310216425 116.25 133.75 116.25 C 69.54689783575 116.25 17.5 64.20310216425 17.5 0 Z" stroke-opacity="1" stroke-linecap="round" stroke-miterlimit="10"/><g transform="rotate(59.99999999999999,0,0)"><path fill="none" stroke="rgb(18,153,214)" paint-order="fill stroke markers" d=" M 17.5 0 C 17.5 -64.20310216425 69.54689783575 -116.25 133.75 -116.25 C 197.95310216425 -116.25 250 -64.20310216425 250 0 C 250 64.20310216425 197.95310216425 116.25 133.75 116.25 C 69.54689783575 116.25 17.5 64.20310216425 17.5 0 Z" stroke-opacity="1" stroke-linecap="round" stroke-miterlimit="10"/><g transform="rotate(59.99999999999999,0,0)"><path fill="none" stroke="rgb(18,153,214)" paint-order="fill stroke markers" d=" M 17.5 0 C 17.5 -64.20310216425 69.54689783575 -116.25 133.75 -116.25 C 197.95310216425 -116.25 250 -64.20310216425 250 0 C 250 64.20310216425 197.95310216425 116.25 133.75 116.25 C 69.54689783575 116.25 17.5 64.20310216425 17.5 0 Z" stroke-opacity="1" stroke-linecap="round" stroke-miterlimit="10"/><g transform="rotate(59.99999999999999,0,0)"><path fill="none" stroke="rgb(18,153,214)" paint-order="fill stroke markers" d=" M 17.5 0 C 17.5 -64.20310216425 69.54689783575 -116.25 133.75 -116.25 C 197.95310216425 -116.25 250 -64.20310216425 250 0 C 250 64.20310216425 197.95310216425 116.25 133.75 116.25 C 69.54689783575 116.25 17.5 64.20310216425 17.5 0 Z" stroke-opacity="1" stroke-linecap="round" stroke-miterlimit="10"/><g transform="rotate(59.99999999999999,0,0)"/></g></g></g></g></g></g></g></g></svg>